# xmcd
#
# Track frame offsets:
#	150
#	18172
#	35604
#	51662
#	69858
#	86382
#	102756
#	119930
#	135904
#	153948
#	171050
#	199780
#
# Disc length: 3334 seconds
#
# Revision: 1
# Processed by: cddbd v1.5.1PL2 Copyright (c) Steve Scherf et al.
# Submitted via: audiograbber 1.81.03
#
DISCID=990d040c
DTITLE=Michael`Carey - Michael`Carey
DYEAR=2005
DGENRE=Country
TTITLE0=Watching You Watching Me
TTITLE1=Anything For You
TTITLE2=Best Things In Life
TTITLE3=What's Left of The Rest of My Mind
TTITLE4=Looking Forward To Looking Back
TTITLE5=That's What I Believe
TTITLE6=A`Day Off
TTITLE7=He Just Said It Sooner
TTITLE8=Cardboard Wings
TTITLE9=Brotherly Love
TTITLE10=Loneliness Road.
TTITLE11=Nothing
EXTD=YEAR: 2005
EXTT0=
EXTT1=
EXTT2=
EXTT3=
EXTT4=
EXTT5=
EXTT6=
EXTT7=
EXTT8=
EXTT9=
EXTT10=
EXTT11=
PLAYORDER=
